<mxfile host="Electron" modified="2023-11-03T02:43:58.210Z" agent="Mozilla/5.0 (Windows NT 10.0; Win64; x64) AppleWebKit/537.36 (KHTML, like Gecko) draw.io/21.2.1 Chrome/112.0.5615.87 Electron/24.1.2 Safari/537.36" etag="xnmD_Ykfm29Ae_-EQ2y5" version="21.2.1" type="device">
  <diagram name="Page-1" id="1NI_dkvSTnY_Oq6jt71S">
    <mxGraphModel dx="2261" dy="836" grid="1" gridSize="10" guides="1" tooltips="1" connect="1" arrows="1" fold="1" page="1" pageScale="1" pageWidth="827" pageHeight="1169" math="0" shadow="0">
      <root>
        <mxCell id="0" />
        <mxCell id="1" parent="0" />
        <mxCell id="G_RmvjNMhY2gO-qynl5l-15" value="" style="group" vertex="1" connectable="0" parent="1">
          <mxGeometry x="920" y="55" width="270" height="525" as="geometry" />
        </mxCell>
        <mxCell id="G_RmvjNMhY2gO-qynl5l-5" value="" style="rounded=0;whiteSpace=wrap;html=1;" vertex="1" parent="G_RmvjNMhY2gO-qynl5l-15">
          <mxGeometry width="270" height="525" as="geometry" />
        </mxCell>
        <mxCell id="G_RmvjNMhY2gO-qynl5l-14" value="CONFIGURE PROGRAM" style="text;html=1;strokeColor=none;fillColor=none;align=center;verticalAlign=middle;whiteSpace=wrap;rounded=0;" vertex="1" parent="G_RmvjNMhY2gO-qynl5l-15">
          <mxGeometry x="105" y="5" width="60" height="30" as="geometry" />
        </mxCell>
        <mxCell id="G_RmvjNMhY2gO-qynl5l-10" value="" style="group" vertex="1" connectable="0" parent="1">
          <mxGeometry x="580" y="52.5" width="290" height="530" as="geometry" />
        </mxCell>
        <mxCell id="G_RmvjNMhY2gO-qynl5l-16" value="" style="group" vertex="1" connectable="0" parent="G_RmvjNMhY2gO-qynl5l-10">
          <mxGeometry width="290" height="530" as="geometry" />
        </mxCell>
        <mxCell id="G_RmvjNMhY2gO-qynl5l-11" value="" style="rounded=0;whiteSpace=wrap;html=1;" vertex="1" parent="G_RmvjNMhY2gO-qynl5l-16">
          <mxGeometry width="290" height="530" as="geometry" />
        </mxCell>
        <mxCell id="G_RmvjNMhY2gO-qynl5l-12" value="NAVIGATE MENU" style="text;html=1;strokeColor=none;fillColor=none;align=center;verticalAlign=middle;whiteSpace=wrap;rounded=0;" vertex="1" parent="G_RmvjNMhY2gO-qynl5l-16">
          <mxGeometry x="120" y="15" width="60" height="30" as="geometry" />
        </mxCell>
        <mxCell id="G_RmvjNMhY2gO-qynl5l-6" style="rounded=0;orthogonalLoop=1;jettySize=auto;html=1;entryX=0;entryY=0.25;entryDx=0;entryDy=0;dashed=1;dashPattern=8 8;" edge="1" parent="1" source="G_RmvjNMhY2gO-qynl5l-1" target="G_RmvjNMhY2gO-qynl5l-5">
          <mxGeometry relative="1" as="geometry">
            <Array as="points">
              <mxPoint x="520" y="20" />
              <mxPoint x="900" y="20" />
            </Array>
          </mxGeometry>
        </mxCell>
        <mxCell id="G_RmvjNMhY2gO-qynl5l-4" value="IR_NUM" style="rounded=0;orthogonalLoop=1;jettySize=auto;html=1;entryX=0;entryY=0.25;entryDx=0;entryDy=0;dashed=1;dashPattern=8 8;" edge="1" parent="1" source="G_RmvjNMhY2gO-qynl5l-3" target="G_RmvjNMhY2gO-qynl5l-5">
          <mxGeometry relative="1" as="geometry">
            <mxPoint x="560" y="260" as="targetPoint" />
            <Array as="points">
              <mxPoint x="520" y="20" />
              <mxPoint x="900" y="20" />
            </Array>
          </mxGeometry>
        </mxCell>
        <mxCell id="G_RmvjNMhY2gO-qynl5l-21" style="rounded=0;orthogonalLoop=1;jettySize=auto;html=1;dashed=1;dashPattern=8 8;" edge="1" parent="1" source="G_RmvjNMhY2gO-qynl5l-17">
          <mxGeometry relative="1" as="geometry">
            <mxPoint x="920" y="180" as="targetPoint" />
            <Array as="points">
              <mxPoint x="520" y="20" />
              <mxPoint x="900" y="20" />
            </Array>
          </mxGeometry>
        </mxCell>
        <mxCell id="G_RmvjNMhY2gO-qynl5l-8" value="IDLE" style="text;html=1;strokeColor=none;fillColor=none;align=center;verticalAlign=middle;whiteSpace=wrap;rounded=0;" vertex="1" parent="1">
          <mxGeometry x="200.9677419354839" y="55" width="75.48387096774195" height="30" as="geometry" />
        </mxCell>
        <mxCell id="G_RmvjNMhY2gO-qynl5l-30" value="IR_DIRECTION" style="edgeStyle=orthogonalEdgeStyle;rounded=0;orthogonalLoop=1;jettySize=auto;html=1;dashed=1;dashPattern=8 8;" edge="1" parent="1" source="G_RmvjNMhY2gO-qynl5l-1">
          <mxGeometry relative="1" as="geometry">
            <mxPoint x="579" y="90" as="targetPoint" />
            <Array as="points">
              <mxPoint x="239" y="90" />
              <mxPoint x="579" y="90" />
            </Array>
          </mxGeometry>
        </mxCell>
        <mxCell id="G_RmvjNMhY2gO-qynl5l-1" value="Clock" style="rounded=0;whiteSpace=wrap;html=1;" vertex="1" parent="1">
          <mxGeometry x="163.2258064516129" y="115" width="150.9677419354839" height="60" as="geometry" />
        </mxCell>
        <mxCell id="G_RmvjNMhY2gO-qynl5l-23" value="IR_DIRECTION" style="edgeStyle=orthogonalEdgeStyle;rounded=0;orthogonalLoop=1;jettySize=auto;html=1;entryX=-0.007;entryY=0.544;entryDx=0;entryDy=0;entryPerimeter=0;dashed=1;dashPattern=8 8;" edge="1" parent="1" source="G_RmvjNMhY2gO-qynl5l-3" target="G_RmvjNMhY2gO-qynl5l-11">
          <mxGeometry relative="1" as="geometry" />
        </mxCell>
        <mxCell id="G_RmvjNMhY2gO-qynl5l-31" value="IR_HASH" style="edgeStyle=orthogonalEdgeStyle;rounded=0;orthogonalLoop=1;jettySize=auto;html=1;entryX=0.5;entryY=1;entryDx=0;entryDy=0;exitX=0.5;exitY=1;exitDx=0;exitDy=0;" edge="1" parent="1" source="G_RmvjNMhY2gO-qynl5l-3" target="G_RmvjNMhY2gO-qynl5l-17">
          <mxGeometry relative="1" as="geometry">
            <mxPoint x="280" y="380" as="targetPoint" />
            <Array as="points">
              <mxPoint x="346" y="410" />
              <mxPoint x="106" y="410" />
            </Array>
          </mxGeometry>
        </mxCell>
        <mxCell id="G_RmvjNMhY2gO-qynl5l-32" value="IR_STAR" style="edgeStyle=orthogonalEdgeStyle;rounded=0;orthogonalLoop=1;jettySize=auto;html=1;exitX=0.25;exitY=1;exitDx=0;exitDy=0;entryX=0;entryY=0.5;entryDx=0;entryDy=0;" edge="1" parent="1" source="G_RmvjNMhY2gO-qynl5l-3" target="G_RmvjNMhY2gO-qynl5l-3">
          <mxGeometry x="0.2541" relative="1" as="geometry">
            <mxPoint x="250" y="390" as="targetPoint" />
            <Array as="points">
              <mxPoint x="308" y="390" />
              <mxPoint x="230" y="390" />
              <mxPoint x="230" y="340" />
            </Array>
            <mxPoint as="offset" />
          </mxGeometry>
        </mxCell>
        <mxCell id="G_RmvjNMhY2gO-qynl5l-3" value="Buzz" style="rounded=0;whiteSpace=wrap;html=1;" vertex="1" parent="1">
          <mxGeometry x="269.9996774193549" y="310" width="150.9677419354839" height="60" as="geometry" />
        </mxCell>
        <mxCell id="G_RmvjNMhY2gO-qynl5l-2" value="IR_HASH" style="edgeStyle=orthogonalEdgeStyle;rounded=0;orthogonalLoop=1;jettySize=auto;html=1;exitX=1;exitY=0.5;exitDx=0;exitDy=0;" edge="1" parent="1" source="G_RmvjNMhY2gO-qynl5l-1" target="G_RmvjNMhY2gO-qynl5l-3">
          <mxGeometry relative="1" as="geometry">
            <mxPoint x="238.70967741935488" y="315" as="targetPoint" />
            <Array as="points">
              <mxPoint x="360" y="145" />
            </Array>
          </mxGeometry>
        </mxCell>
        <mxCell id="G_RmvjNMhY2gO-qynl5l-19" value="IR_HASH" style="edgeStyle=orthogonalEdgeStyle;rounded=0;orthogonalLoop=1;jettySize=auto;html=1;entryX=0;entryY=0.5;entryDx=0;entryDy=0;exitX=0.5;exitY=0;exitDx=0;exitDy=0;" edge="1" parent="1" source="G_RmvjNMhY2gO-qynl5l-17" target="G_RmvjNMhY2gO-qynl5l-1">
          <mxGeometry x="-0.0122" y="5" relative="1" as="geometry">
            <Array as="points">
              <mxPoint x="106" y="145" />
            </Array>
            <mxPoint as="offset" />
          </mxGeometry>
        </mxCell>
        <mxCell id="G_RmvjNMhY2gO-qynl5l-29" value="IR_DIRECTION" style="edgeStyle=orthogonalEdgeStyle;rounded=0;orthogonalLoop=1;jettySize=auto;html=1;dashed=1;dashPattern=8 8;" edge="1" parent="1" source="G_RmvjNMhY2gO-qynl5l-17">
          <mxGeometry relative="1" as="geometry">
            <mxPoint x="580" y="430" as="targetPoint" />
            <Array as="points">
              <mxPoint x="40" y="430" />
              <mxPoint x="579" y="430" />
            </Array>
          </mxGeometry>
        </mxCell>
        <mxCell id="G_RmvjNMhY2gO-qynl5l-17" value="Gym Name" style="rounded=0;whiteSpace=wrap;html=1;" vertex="1" parent="1">
          <mxGeometry x="30.001290322580644" y="310" width="150.9677419354839" height="60" as="geometry" />
        </mxCell>
        <mxCell id="G_RmvjNMhY2gO-qynl5l-24" value="" style="rounded=0;whiteSpace=wrap;html=1;" vertex="1" parent="1">
          <mxGeometry x="-270" y="80" width="180" height="160" as="geometry" />
        </mxCell>
        <mxCell id="G_RmvjNMhY2gO-qynl5l-25" value="Internal State Control" style="text;html=1;strokeColor=none;fillColor=none;align=center;verticalAlign=middle;whiteSpace=wrap;rounded=0;" vertex="1" parent="1">
          <mxGeometry x="-150" y="100" width="60" height="30" as="geometry" />
        </mxCell>
        <mxCell id="G_RmvjNMhY2gO-qynl5l-26" value="External State Control" style="text;html=1;strokeColor=none;fillColor=none;align=center;verticalAlign=middle;whiteSpace=wrap;rounded=0;" vertex="1" parent="1">
          <mxGeometry x="-150" y="170" width="60" height="30" as="geometry" />
        </mxCell>
        <mxCell id="G_RmvjNMhY2gO-qynl5l-27" value="" style="endArrow=classic;html=1;rounded=0;" edge="1" parent="1">
          <mxGeometry width="50" height="50" relative="1" as="geometry">
            <mxPoint x="-260" y="115" as="sourcePoint" />
            <mxPoint x="-170" y="115" as="targetPoint" />
          </mxGeometry>
        </mxCell>
        <mxCell id="G_RmvjNMhY2gO-qynl5l-28" value="" style="endArrow=classic;html=1;rounded=0;dashed=1;dashPattern=8 8;" edge="1" parent="1">
          <mxGeometry width="50" height="50" relative="1" as="geometry">
            <mxPoint x="-260" y="184.5" as="sourcePoint" />
            <mxPoint x="-170" y="184.5" as="targetPoint" />
          </mxGeometry>
        </mxCell>
      </root>
    </mxGraphModel>
  </diagram>
</mxfile>
